<svg xmlns="http://www.w3.org/2000/svg" width="20" height="20" viewBox="0 0 20 20">
  <defs>
    <style>
      .cls-1 {
        fill: #95989a;
        stroke: #95989a;
        stroke-linejoin: bevel;
      }

      .cls-2 {
        fill: #fbfbfb;
        fill-rule: evenodd;
      }
    </style>
  </defs>
  <g id="Google_" data-name="Google+" transform="translate(0.5 0.5)">
    <path id="Pfad_644" data-name="Pfad 644" class="cls-1" d="M0,0H19V19H0Z"/>
    <path id="Pfad_51" data-name="Pfad 51" class="cls-2" d="M19,5.694V7.635H17.219V9.576H15.438V7.506H13.656V5.694h1.781V3.753h1.781V5.694Zm-12.944,0h5.7c0,.388.119.647.119,1.035,0,3.753-2.256,6.471-5.819,6.471A6.373,6.373,0,0,1,0,6.6,6.373,6.373,0,0,1,6.056,0a5.6,5.6,0,0,1,4.038,1.682L8.431,3.494A3.045,3.045,0,0,0,6.056,2.459,4.007,4.007,0,0,0,2.256,6.6a3.93,3.93,0,0,0,3.8,4.141A3.323,3.323,0,0,0,9.5,7.894H6.056Z" transform="translate(0 3)"/>
  </g>
</svg>
