<svg xmlns="http://www.w3.org/2000/svg" width="20" height="20" viewBox="0 0 20 20">
  <defs>
    <style>
      .cls-1 {
        fill: #95989a;
        stroke: #95989a;
        stroke-linejoin: bevel;
      }

      .cls-2 {
        fill: #fbfbfb;
        fill-rule: evenodd;
      }
    </style>
  </defs>
  <g id="Twitter" transform="translate(0.5 0.5)">
    <rect id="Rechteck_1457" data-name="Rechteck 1457" class="cls-1" width="19" height="19" transform="translate(0)"/>
    <path id="Pfad_2" data-name="Pfad 2" class="cls-2" d="M44.017,17.411A10.985,10.985,0,0,0,55.1,6.328V5.8A8.58,8.58,0,0,0,57,3.794a8.762,8.762,0,0,1-2.217.633,4.107,4.107,0,0,0,1.689-2.111,9.682,9.682,0,0,1-2.428.95A3.77,3.77,0,0,0,51.194,2a3.966,3.966,0,0,0-3.906,3.906,2.058,2.058,0,0,0,.106.844,10.913,10.913,0,0,1-8.022-4.117,4.042,4.042,0,0,0-.528,2.006,4.194,4.194,0,0,0,1.689,3.272,3.558,3.558,0,0,1-1.794-.528h0a3.858,3.858,0,0,0,3.167,3.8,3.254,3.254,0,0,1-1.056.106,1.8,1.8,0,0,1-.739-.106,4,4,0,0,0,3.694,2.744,7.97,7.97,0,0,1-4.856,1.689,2.922,2.922,0,0,1-.95-.106,9.963,9.963,0,0,0,6.017,1.9" transform="translate(-38)"/>
  </g>
</svg>
