<svg id="Options" xmlns="http://www.w3.org/2000/svg" width="3" height="12" viewBox="0 0 3 12">
  <defs>
    <style>
      .cls-1 {
        fill: #fbfbfb;
      }
    </style>
  </defs>
  <path id="Vereinigungsmenge_1" data-name="Vereinigungsmenge 1" class="cls-1" d="M0,10.8A1.376,1.376,0,0,1,1.5,9.6,1.376,1.376,0,0,1,3,10.8,1.376,1.376,0,0,1,1.5,12,1.376,1.376,0,0,1,0,10.8ZM0,6A1.375,1.375,0,0,1,1.5,4.8,1.375,1.375,0,0,1,3,6,1.375,1.375,0,0,1,1.5,7.2,1.375,1.375,0,0,1,0,6ZM0,1.2A1.375,1.375,0,0,1,1.5,0,1.375,1.375,0,0,1,3,1.2,1.375,1.375,0,0,1,1.5,2.4,1.375,1.375,0,0,1,0,1.2Z"/>
</svg>
